<?xml version="1.0" standalone="no"?>
<!DOCTYPE svg PUBLIC "-//W3C//DTD SVG 20010904//EN"
 "http://www.w3.org/TR/2001/REC-SVG-20010904/DTD/svg10.dtd">
<svg version="1.0" xmlns="http://www.w3.org/2000/svg"
 width="550.000000pt" height="550.000000pt" viewBox="0 0 550.000000 550.000000"
 preserveAspectRatio="xMidYMid meet">
<metadata>
Created by potrace 1.14, written by Peter Selinger 2001-2017
</metadata>
<g transform="translate(0.000000,550.000000) scale(0.100000,-0.100000)"
fill="#000000" stroke="none">
<path d="M2298 5014 c-12 -11 -9 -80 4 -109 6 -14 22 -28 35 -31 13 -4 22 -8
20 -10 -1 -2 -72 -22 -157 -44 -404 -108 -721 -289 -1037 -595 l-96 -92 -56
34 c-85 51 -149 66 -254 60 -75 -4 -99 -10 -161 -40 -119 -60 -197 -155 -231
-282 -29 -112 -12 -241 42 -335 39 -66 120 -143 181 -170 28 -13 52 -25 52
-28 0 -2 -9 -38 -19 -80 -84 -336 -93 -728 -24 -1062 14 -69 28 -137 30 -151
4 -23 -1 -29 -50 -52 -71 -35 -150 -120 -190 -204 -30 -64 -32 -74 -32 -183 0
-108 2 -119 31 -180 57 -117 169 -208 297 -241 79 -19 200 -7 283 28 l71 31
114 -115 c281 -285 560 -460 915 -572 71 -22 148 -45 170 -51 l41 -10 5 -69
c9 -128 99 -274 214 -347 106 -68 249 -92 374 -63 117 27 244 119 303 221 28
48 53 136 62 219 l6 46 77 18 c126 29 299 92 427 155 252 124 466 286 673 512
l53 58 37 -19 c75 -38 150 -54 243 -49 79 4 96 8 173 47 70 34 96 53 138 104
82 99 93 131 93 272 0 116 -1 123 -32 186 -44 88 -97 146 -177 193 -36 21 -66
41 -66 45 0 3 13 71 29 151 43 213 54 353 48 579 -5 195 -23 333 -65 512 l-18
76 55 29 c77 40 157 123 195 203 29 62 31 73 31 181 0 108 -2 119 -32 182 -81
173 -237 267 -422 255 -90 -5 -144 -23 -198 -63 -17 -13 -37 -24 -43 -24 -7 0
-68 52 -137 115 -149 138 -251 217 -389 301 -190 117 -403 211 -576 254 -162
41 -160 40 -154 56 3 9 1 12 -4 9 -6 -3 -10 1 -10 10 0 11 5 15 14 12 10 -4
13 -1 9 9 -3 7 -16 14 -28 14 -13 0 -36 5 -50 10 -32 12 -144 -6 -161 -27 -6
-7 -17 -13 -25 -13 -11 0 -11 -2 1 -10 11 -7 -2 -10 -45 -11 -43 0 -54 -3 -40
-9 l20 -9 -20 -1 c-11 -1 -91 -3 -177 -5 -134 -2 -159 -1 -170 13 -11 13 -10
15 5 9 9 -3 17 -2 17 3 0 6 -4 10 -10 10 -5 0 -10 5 -10 10 0 6 9 10 20 10 11
0 20 5 20 10 0 16 -46 12 -60 -5 -7 -8 -20 -15 -29 -15 -14 0 -14 2 -1 10 12
8 10 10 -10 10 -20 0 -22 2 -10 10 11 8 9 9 -11 5 -16 -4 -30 -1 -38 9 -16 19
-41 10 -41 -15 0 -10 -4 -19 -9 -19 -11 0 -22 24 -35 78 -6 24 -14 40 -18 36z
m150 -123 c19 -1 87 -70 77 -79 -4 -4 -10 -1 -12 6 -12 33 -48 52 -97 53 -28
1 -43 3 -33 6 9 2 15 8 13 12 -3 4 5 6 17 5 12 -1 28 -3 35 -3z m708 0 c-6 -9
-46 -22 -46 -15 0 3 10 9 23 14 29 11 29 11 23 1z m-109 -26 c0 -10 -9 -15
-26 -14 -17 1 -20 3 -8 6 9 2 17 9 17 14 0 5 4 9 8 9 5 0 9 -7 9 -15z m126 -2
c-7 -2 -21 -2 -30 0 -10 3 -4 5 12 5 17 0 24 -2 18 -5z m-240 -10 c-7 -2 -19
-2 -25 0 -7 3 -2 5 12 5 14 0 19 -2 13 -5z m-406 -115 c-2 -13 -4 -5 -4 17 -1
22 1 32 4 23 2 -10 2 -28 0 -40z m180 -94 c-3 -3 -12 -4 -19 -1 -8 3 -5 6 6 6
11 1 17 -2 13 -5z m130 0 c-3 -3 -12 -4 -19 -1 -8 3 -5 6 6 6 11 1 17 -2 13
-5z m-268 -159 c120 -51 268 -44 433 21 46 17 50 17 140 0 171 -33 355 -102
527 -200 83 -47 243 -158 311 -215 l35 -29 -100 -93 c-102 -95 -267 -254 -545
-524 -342 -332 -392 -377 -409 -369 -47 20 -151 44 -191 44 -108 0 -220 -48
-295 -126 -160 -167 -153 -421 15 -577 256 -237 680 -50 680 300 0 47 5 71 18
86 9 12 123 123 252 246 129 124 270 259 314 300 57 55 76 69 70 51 -50 -147
123 -262 231 -154 60 60 60 146 -1 205 -32 31 -40 34 -96 34 l-60 0 168 162
c93 89 176 162 185 163 26 0 36 -20 47 -99 18 -121 75 -213 190 -301 29 -23
35 -38 66 -160 62 -245 71 -314 70 -550 0 -229 -11 -315 -70 -560 l-26 -105
-55 -38 c-103 -73 -161 -178 -178 -320 -6 -47 -16 -70 -52 -120 -69 -94 -296
-314 -403 -389 -202 -143 -496 -269 -686 -294 -50 -6 -53 -5 -107 39 -168 137
-444 127 -599 -21 l-37 -35 -93 23 c-366 90 -668 263 -920 529 -140 147 -168
192 -183 293 -20 137 -86 242 -196 315 -35 23 -38 29 -68 152 -52 215 -64 318
-64 521 0 210 14 322 70 552 l36 147 57 44 c55 43 119 126 141 183 6 16 15 54
21 84 5 30 16 67 24 82 20 38 223 247 313 322 240 199 516 338 789 397 106 23
148 20 231 -16z m-1658 -480 c109 -76 144 -209 84 -325 -19 -37 -79 -88 -113
-96 -15 -4 -31 -10 -37 -14 -19 -12 -115 -10 -149 4 -47 19 -104 73 -129 120
-29 56 -29 155 1 213 26 49 81 97 137 118 62 23 156 14 206 -20z m3919 14
c112 -67 168 -191 128 -286 -6 -15 -10 -32 -9 -37 1 -5 -5 -6 -13 -3 -18 7
-31 -9 -16 -18 13 -8 3 -25 -13 -21 -7 1 -9 1 -4 -1 13 -8 7 -25 -7 -20 -8 3
-17 -1 -20 -9 -3 -8 -17 -14 -31 -14 -16 0 -25 -6 -25 -16 0 -8 -4 -12 -10 -9
-5 3 -10 2 -10 -3 0 -5 -12 -7 -27 -5 -22 4 -25 2 -13 -6 12 -8 7 -10 -20 -10
-19 1 -51 4 -70 6 l-35 6 30 13 c34 15 19 19 -18 5 -20 -8 -31 -5 -57 14 -45
33 -83 89 -84 124 -1 16 -4 27 -8 24 -5 -2 -8 17 -8 44 0 55 29 125 68 167 67
71 200 98 272 55z m-1969 -1115 c40 -20 97 -89 108 -131 12 -44 14 -87 4 -97
-4 -3 -8 -16 -10 -27 -8 -54 -97 -124 -171 -135 -48 -7 -126 11 -117 26 3 6 0
7 -8 4 -9 -3 -31 13 -56 42 -40 46 -61 95 -61 144 1 69 84 168 158 188 43 12
116 5 153 -14z m-1987 -1029 c57 -27 115 -89 136 -144 21 -54 28 -119 10 -91
-8 12 -10 12 -10 1 0 -11 -3 -11 -17 0 -12 11 -64 14 -225 15 -205 2 -210 1
-218 -20 -8 -18 -9 -17 -9 11 -1 17 3 34 9 38 5 3 7 12 4 20 -7 17 34 91 68
121 67 62 179 83 252 49z m2003 -1075 c55 -24 129 -99 155 -158 29 -65 29
-170 0 -235 -12 -27 -26 -46 -32 -42 -9 6 -14 -7 -11 -27 1 -9 -28 -6 -44 4
-9 5 -40 5 -83 0 -7 -1 -11 -6 -7 -12 3 -5 13 -6 22 -3 12 5 14 3 8 -8 -7 -10
-2 -9 17 3 23 15 25 15 24 1 0 -9 6 -18 14 -20 12 -4 12 -3 1 5 -9 7 -10 12
-2 16 6 4 11 2 11 -4 0 -6 6 -8 13 -4 6 4 4 -2 -7 -14 -16 -19 -20 -19 -33 -6
-12 11 -18 12 -29 3 -8 -6 -14 -14 -14 -16 0 -3 6 0 14 6 10 9 15 8 19 -3 4
-9 1 -18 -5 -22 -7 -5 -8 -3 -4 5 6 8 2 11 -10 9 -11 -2 -18 2 -16 9 1 9 -11
13 -37 13 -22 0 -43 4 -46 10 -3 6 -33 10 -67 10 -49 0 -59 -3 -54 -15 3 -8 1
-15 -4 -15 -6 0 -10 6 -10 14 0 7 -9 16 -21 19 -15 4 -18 2 -10 -7 6 -7 8 -16
4 -19 -3 -4 0 -15 8 -24 13 -16 12 -17 -3 -5 -9 8 -23 10 -29 6 -8 -5 -9 -3
-4 6 6 9 4 12 -7 8 -8 -4 -19 -3 -25 0 -25 17 -93 117 -103 150 -26 96 -1 210
63 279 97 105 222 135 344 83z"/>
<path d="M2700 4148 c-101 -51 -107 -191 -11 -255 84 -57 185 -3 206 109 11
57 -26 125 -79 149 -53 24 -63 24 -116 -3z"/>
<path d="M2035 3962 c-67 -42 -89 -128 -51 -200 38 -73 137 -95 197 -45 103
87 61 249 -68 260 -35 3 -56 -1 -78 -15z"/>
<path d="M3343 3960 c-68 -41 -90 -119 -54 -193 49 -102 204 -103 247 -2 55
132 -77 266 -193 195z"/>
<path d="M1495 3471 c-49 -30 -68 -58 -73 -109 -13 -139 136 -213 233 -116 44
43 53 90 30 150 -31 82 -121 118 -190 75z"/>
<path d="M1336 2820 c-55 -17 -96 -76 -96 -137 1 -45 35 -110 69 -127 66 -34
158 -11 197 50 25 37 24 116 -2 151 -43 57 -108 82 -168 63z"/>
<path d="M4085 2823 c-102 -27 -135 -171 -57 -246 50 -48 107 -54 175 -20 87
44 89 192 3 248 -27 18 -88 27 -121 18z"/>
<path d="M1494 2121 c-53 -32 -74 -68 -74 -125 0 -63 25 -106 73 -129 67 -32
140 -12 179 50 76 124 -58 277 -178 204z"/>
<path d="M3892 2120 c-64 -39 -88 -113 -58 -183 44 -105 183 -115 240 -17 25
42 24 114 -2 149 -50 67 -120 87 -180 51z"/>
<path d="M2035 1631 c-50 -30 -68 -58 -72 -108 -8 -91 49 -157 137 -157 148 0
192 199 59 266 -44 23 -86 23 -124 -1z"/>
<path d="M3353 1634 c-93 -46 -97 -191 -8 -250 35 -23 110 -21 143 3 45 34 65
69 65 115 0 113 -102 180 -200 132z"/>
<path d="M2716 1480 c-84 -26 -121 -129 -75 -210 65 -115 234 -79 256 53 7 43
-26 117 -61 140 -31 21 -84 28 -120 17z"/>
<path d="M4800 3626 c0 -13 -11 -15 -57 -12 -39 3 -50 1 -33 -4 40 -13 87 -11
99 4 8 10 9 16 1 21 -5 3 -10 -1 -10 -9z"/>
<path d="M4609 3607 c4 -4 18 -3 32 2 23 9 22 9 -8 8 -18 -1 -28 -6 -24 -10z"/>
<path d="M4710 3590 c8 -5 20 -10 25 -10 6 0 3 5 -5 10 -8 5 -19 10 -25 10 -5
0 -3 -5 5 -10z"/>
<path d="M4678 3573 c6 -2 18 -2 25 0 6 3 1 5 -13 5 -14 0 -19 -2 -12 -5z"/>
<path d="M2850 2562 c0 -6 -8 -13 -17 -15 -16 -4 -16 -5 -1 -6 18 -1 34 16 24
26 -3 4 -6 1 -6 -5z"/>
<path d="M2608 363 c6 -2 18 -2 25 0 6 3 1 5 -13 5 -14 0 -19 -2 -12 -5z"/>
<path d="M2760 363 c-52 -6 -56 -19 -5 -15 25 2 45 8 45 13 0 5 -1 8 -2 7 -2
0 -19 -3 -38 -5z"/>
<path d="M2545 341 c-7 -12 12 -24 43 -27 13 -2 23 -2 21 0 -37 25 -59 34 -64
27z"/>
<path d="M2945 5010 l-100 -6 97 -2 c56 -1 99 2 103 8 3 6 5 9 3 8 -2 -1 -48
-5 -103 -8z"/>
<path d="M2913 4977 c16 -11 14 -14 -18 -31 -38 -21 -43 -31 -19 -40 24 -9 29
-8 56 17 36 33 41 54 15 61 -39 10 -53 8 -34 -7z"/>
<path d="M2380 4969 c0 -5 5 -7 10 -4 6 3 10 8 10 11 0 2 -4 4 -10 4 -5 0 -10
-5 -10 -11z"/>
<path d="M3212 4955 c0 -16 2 -22 5 -12 2 9 2 23 0 30 -3 6 -5 -1 -5 -18z"/>
<path d="M1355 4935 c-104 -37 -137 -166 -65 -249 34 -38 102 -62 149 -51 44
9 97 63 110 110 21 79 -31 173 -109 195 -42 12 -36 12 -85 -5z"/>
<path d="M2465 4940 c3 -5 8 -10 11 -10 2 0 4 5 4 10 0 6 -5 10 -11 10 -5 0
-7 -4 -4 -10z"/>
<path d="M4066 4940 c-87 -26 -131 -139 -90 -227 29 -60 102 -90 172 -71 73
20 117 83 110 158 -6 60 -39 107 -92 131 -45 20 -57 21 -100 9z"/>
<path d="M2648 4903 c7 -3 16 -2 19 1 4 3 -2 6 -13 5 -11 0 -14 -3 -6 -6z"/>
<path d="M2848 4883 c12 -2 32 -2 45 0 12 2 2 4 -23 4 -25 0 -35 -2 -22 -4z"/>
<path d="M96 2837 c-56 -32 -79 -67 -84 -130 -9 -106 46 -168 155 -175 56 -4
68 -1 104 22 87 58 93 183 13 258 -57 53 -124 62 -188 25z"/>
<path d="M5264 2841 c-81 -37 -116 -147 -72 -230 31 -61 75 -83 151 -78 64 4
98 24 135 77 47 70 16 182 -63 227 -49 28 -96 29 -151 4z"/>
<path d="M1365 700 c-73 -16 -108 -62 -113 -145 -2 -47 1 -67 17 -93 82 -129
281 -73 281 80 0 59 -19 99 -62 131 -38 28 -80 37 -123 27z"/>
<path d="M4050 688 c-110 -56 -121 -208 -20 -276 28 -19 45 -23 86 -20 65 6
110 37 136 96 58 131 -76 264 -202 200z"/>
</g>
</svg>
